<svg width="58" height="58" viewBox="0 0 58 58" fill="none" xmlns="http://www.w3.org/2000/svg">
<g clip-path="url(#clip0_3_449)" filter="url(#filter0_d_3_449)">
<path d="M54 6.25C54 9.70215 51.2178 12.5 47.7861 12.5H7.10645C7.08594 12.5 7.05859 12.5 7.02539 12.499C6.19922 12.4775 5.4541 12.1328 4.91016 11.585C4.7334 11.4072 4.57715 11.208 4.44727 10.9912C4.16309 10.5195 4 9.9668 4 9.375C4 7.64941 5.39062 6.25 7.10645 6.25C7.0791 6.25 7.05176 6.24902 7.02344 6.24902C6.83887 6.24414 6.65918 6.22256 6.48438 6.1875C6.4834 6.1875 6.48242 6.1875 6.48047 6.18652C5.87305 6.06152 5.33105 5.75879 4.91016 5.33496C4.7334 5.15723 4.57715 4.95801 4.44727 4.74121C4.16309 4.26953 4 3.7168 4 3.125C4 1.39941 5.39062 0 7.10645 0H47.7861C48.1807 0 48.5664 0.0371094 48.9395 0.108398C50.1934 0.34375 51.3135 0.958984 52.1797 1.83008C53.3047 2.96094 54 4.52344 54 6.25Z" fill="#ACA6D6"/>
<path d="M54 6.25C54 9.70215 51.2178 12.5 47.7861 12.5H7.10645C7.08594 12.5 7.05859 12.5 7.02539 12.499C6.19922 12.4775 5.4541 12.1328 4.91016 11.585C4.7334 11.4072 4.57715 11.208 4.44727 10.9912H44.7686C46.8096 10.9912 48.6221 10 49.7549 8.4707C50.543 7.40723 49.7031 6.02832 48.3789 6.03516C7.10645 6.25 48.3789 6.03516 7.10645 6.25C7.0791 6.25 7.05176 6.24902 7.02344 6.24902C6.83887 6.24414 6.65918 6.22256 6.48438 6.1875C6.4834 6.1875 6.48242 6.1875 6.48047 6.18652C5.87305 6.06152 5.33105 5.75879 4.91016 5.33496C4.7334 5.15723 4.57715 4.95801 4.44727 4.74121H44.7686C46.374 4.74121 47.8369 4.12793 48.9395 3.12109C49.8174 2.32031 49.8301 0.925781 48.9541 0.12207C48.9512 0.119141 48.9444 0.113281 48.9395 0.108398C50.1934 0.34375 51.3135 0.958984 52.1797 1.83008C53.3047 2.96094 54 4.52344 54 6.25Z" fill="#978ECB"/>
<path d="M50.8932 18.75C52.609 18.75 54 20.1491 54 21.875C54 23.6009 52.609 25 50.8932 25H10.2138C6.78193 25 4 22.2018 4 18.75C4 15.2982 6.78193 12.5 10.2138 12.5H50.8932C52.609 12.5 54 13.8991 54 15.625C54 17.3509 52.609 18.75 50.8932 18.75Z" fill="#7ACAA6"/>
<path d="M50.8931 18.75C50.9482 18.75 50.9984 18.7486 51.0442 18.7462C51.0625 18.7453 51.0806 18.7436 51.0988 18.7425C51.1013 18.7423 51.104 18.7422 51.1064 18.7419C52.731 18.6312 54 17.2538 54 15.625C54 13.9114 52.6203 12.4991 50.8931 12.5L50.9818 14.1159C50.9818 15.8418 49.5908 17.2409 47.875 17.2409H7.19561C7.02148 17.2409 5.67285 17.2334 4.18848 17.2188C4.06611 17.7075 4.00039 18.2189 4 18.7457C4.05918 18.7475 4.11807 18.75 4.17754 18.75H9.99707H49.3527C50.24 18.75 50.9771 19.4599 50.9818 20.3472V20.3659C50.9818 22.0918 49.5908 23.4909 47.875 23.4909H7.19561C6.80117 23.4909 6.41582 23.4523 6.0418 23.3816C7.14463 24.3873 8.60801 25 10.2138 25H50.8932C52.609 25 54 23.6009 54 21.875C54 20.1491 52.609 18.75 50.8931 18.75Z" fill="#57BE92"/>
<path d="M54 31.25C54 34.7021 51.2178 37.5 47.7861 37.5H7.10645C7.08594 37.5 7.05859 37.5 7.02539 37.499C6.19922 37.4775 5.4541 37.1328 4.91016 36.585C4.7334 36.4072 4.57715 36.208 4.44727 35.9912C4.16309 35.5195 4 34.9668 4 34.375C4 32.6494 5.39062 31.25 7.10645 31.25C7.0791 31.25 7.05176 31.249 7.02344 31.249C6.83887 31.2441 6.65918 31.2226 6.48438 31.1875C6.4834 31.1875 6.48242 31.1875 6.48047 31.1865C5.87305 31.0615 5.33105 30.7588 4.91016 30.335C4.7334 30.1572 4.57715 29.958 4.44727 29.7412C4.16309 29.2695 4 28.7168 4 28.125C4 26.3994 5.39062 25 7.10645 25H47.7861C48.1807 25 48.5664 25.0371 48.9395 25.1084C50.1934 25.3437 51.3135 25.959 52.1797 26.8301C53.3047 27.9609 54 29.5234 54 31.25Z" fill="#ACA6D6"/>
<path d="M54 31.25C54 34.7022 51.2178 37.5 47.7861 37.5H7.10645C7.08594 37.5 7.05859 37.5 7.02539 37.499C6.19922 37.4775 5.4541 37.1328 4.91016 36.585C4.7334 36.4072 4.57715 36.208 4.44727 35.9912H44.7686C46.8096 35.9912 48.6221 35 49.7549 33.4707C50.543 32.4072 49.7031 31.0283 48.3789 31.0352C7.10645 31.25 48.3789 31.0352 7.10645 31.25C7.0791 31.25 7.05176 31.249 7.02344 31.249C6.83887 31.2441 6.65918 31.2226 6.48438 31.1875C6.4834 31.1875 6.48242 31.1875 6.48047 31.1865C5.87305 31.0615 5.33105 30.7588 4.91016 30.335C4.7334 30.1572 4.57715 29.958 4.44727 29.7412H44.7686C46.374 29.7412 47.8369 29.1279 48.9395 28.1211C49.8174 27.3203 49.8301 25.9258 48.9541 25.1221C48.9512 25.1191 48.9444 25.1133 48.9395 25.1084C50.1934 25.3438 51.3135 25.959 52.1797 26.8301C53.3047 27.9609 54 29.5234 54 31.25Z" fill="#978ECB"/>
<path d="M50.8932 43.75C52.609 43.75 54 45.1491 54 46.875C54 48.6009 52.609 50 50.8932 50H10.2138C6.78193 50 4 47.2018 4 43.75C4 40.2982 6.78193 37.5 10.2138 37.5H50.8932C52.609 37.5 54 38.8991 54 40.625C54 42.3509 52.609 43.75 50.8932 43.75Z" fill="#7ACAA6"/>
<path d="M50.8931 43.75C50.9482 43.75 50.9984 43.7486 51.0442 43.7462C51.0625 43.7453 51.0806 43.7437 51.0988 43.7425C51.1013 43.7423 51.104 43.7422 51.1064 43.7419C52.731 43.6312 54 42.2538 54 40.625C54 38.9114 52.6203 37.4991 50.8931 37.5L50.9818 39.1159C50.9818 40.8418 49.5908 42.2409 47.875 42.2409H7.19561C7.02148 42.2409 5.67285 42.2334 4.18848 42.2188C4.06611 42.7075 4.00039 43.2189 4 43.7457C4.05918 43.7475 4.11807 43.75 4.17754 43.75H9.99707H49.3527C50.24 43.75 50.9771 44.4599 50.9818 45.3472V45.3659C50.9818 47.0918 49.5908 48.4909 47.875 48.4909H7.19561C6.80117 48.4909 6.41582 48.4522 6.0418 48.3816C7.14463 49.3873 8.60801 50 10.2138 50H50.8932C52.609 50 54 48.6009 54 46.875C54 45.1491 52.609 43.75 50.8931 43.75Z" fill="#57BE92"/>
</g>
<defs>
<filter id="filter0_d_3_449" x="0" y="0" width="58" height="58" filterUnits="userSpaceOnUse" color-interpolation-filters="sRGB">
<feFlood flood-opacity="0" result="BackgroundImageFix"/>
<feColorMatrix in="SourceAlpha" type="matrix" values="0 0 0 0 0 0 0 0 0 0 0 0 0 0 0 0 0 0 127 0" result="hardAlpha"/>
<feOffset dy="4"/>
<feGaussianBlur stdDeviation="2"/>
<feComposite in2="hardAlpha" operator="out"/>
<feColorMatrix type="matrix" values="0 0 0 0 0 0 0 0 0 0 0 0 0 0 0 0 0 0 0.25 0"/>
<feBlend mode="normal" in2="BackgroundImageFix" result="effect1_dropShadow_3_449"/>
<feBlend mode="normal" in="SourceGraphic" in2="effect1_dropShadow_3_449" result="shape"/>
</filter>
<clipPath id="clip0_3_449">
<rect width="50" height="50" fill="white" transform="translate(4)"/>
</clipPath>
</defs>
</svg>
