<svg width="54" height="58" viewBox="0 0 54 58" fill="none" xmlns="http://www.w3.org/2000/svg">
<g clip-path="url(#clip0_3_368)" filter="url(#filter0_d_3_368)">
<path d="M35.5318 14.6613C35.1213 14.6613 34.7885 14.3285 34.7885 13.9181V9.03438C34.7885 8.62384 35.1212 8.29102 35.5318 8.29102C35.9424 8.29102 36.2751 8.62384 36.2751 9.03438V13.9181C36.2751 14.3286 35.9424 14.6613 35.5318 14.6613Z" fill="#F07281"/>
<path d="M43.7858 14.6613C43.3753 14.6613 43.0425 14.3285 43.0425 13.9181V9.03438C43.0425 8.62384 43.3752 8.29102 43.7858 8.29102C44.1964 8.29102 44.5291 8.62384 44.5291 9.03438V13.9181C44.5291 14.3286 44.1964 14.6613 43.7858 14.6613Z" fill="#F07281"/>
<path d="M47.4885 50.0003C48.0523 50.0003 48.4442 49.4454 48.2599 48.914C46.3808 43.5 46.2591 39.2144 46.5497 36.1851C46.989 31.6055 48.6177 27.3175 46.1669 23.9894C45.2736 22.7766 44.1781 22.1523 44.0614 20.6548C43.8863 18.4099 46.1695 17.5228 45.9756 15.224C45.86 13.8546 44.8767 12.1182 43.2958 11.8894C41.8957 11.6866 40.3198 12.7088 39.659 14.4618C38.9983 12.7087 37.4223 11.6865 36.0222 11.8894C34.4413 12.1183 33.458 13.8547 33.3424 15.224C33.1485 17.5228 35.4316 18.4099 35.2565 20.6548C35.1397 22.1523 34.0442 22.7766 33.151 23.9894C30.7001 27.3175 32.3289 31.6055 32.7682 36.1851C33.0587 39.2144 32.9371 43.5 31.0579 48.914C30.8735 49.4454 31.2655 50.0003 31.8293 50.0003H47.4885Z" fill="#F58A97"/>
<path d="M48.2597 48.9137C46.3807 43.4997 46.259 39.2141 46.5496 36.1848C46.9889 31.6052 48.6176 27.3172 46.1668 23.9892C45.2735 22.7763 44.178 22.1521 44.0613 20.6544C43.8862 18.4095 46.1693 17.5224 45.9754 15.2236C45.8598 13.8542 44.8765 12.1179 43.2956 11.889C42.6646 11.7976 41.9981 11.9557 41.3955 12.3167C42.3421 12.9665 42.9155 14.198 43.0021 15.2236C43.1961 17.5224 40.913 18.4095 41.0881 20.6544C41.2048 22.1521 42.3003 22.7762 43.1935 23.9892C45.6444 27.3172 44.0156 31.6052 43.5764 36.1848C43.2858 39.2141 43.4074 43.4997 45.2865 48.9137C45.471 49.445 45.0789 50 44.5151 50H47.4884C48.0521 50 48.4442 49.4451 48.2597 48.9137Z" fill="#F07281"/>
<path d="M35.2225 19.9111C35.2624 20.1432 35.277 20.3891 35.2563 20.6544C35.235 20.9285 35.1806 21.1731 35.1008 21.3978H44.2168C44.1371 21.1732 44.0826 20.9286 44.0613 20.6544C44.0406 20.3891 44.0553 20.1432 44.0951 19.9111H35.2225Z" fill="#F07281"/>
<path d="M48.9049 10.0717L40.3343 7.01367V5.55625C41.7389 5.4877 42.8603 4.32715 42.8603 2.91035V2.72266C42.8603 1.22139 41.635 0 40.1288 0H39.9708C38.4647 0 37.2393 1.22139 37.2393 2.72266C37.2393 3.1332 37.572 3.46592 37.9825 3.46592C38.3931 3.46592 38.7259 3.13311 38.7259 2.72266C38.7259 2.04111 39.2844 1.48662 39.9708 1.48662H40.1288C40.8152 1.48662 41.3736 2.04111 41.3736 2.72266V2.91045C41.3736 3.55137 40.8484 4.07285 40.2027 4.07285C39.4556 4.07285 38.8477 4.67949 38.8477 5.4252V7.06211L30.4128 10.0718C30.0262 10.2098 29.8245 10.6351 29.9625 11.0217C30.1004 11.4083 30.5257 11.6096 30.9124 11.472L39.6588 8.35117L48.4053 11.472C48.4878 11.5015 48.5722 11.5154 48.6551 11.5154C48.9605 11.5154 49.2466 11.3258 49.3551 11.0217C49.4932 10.635 49.2916 10.2097 48.9049 10.0717Z" fill="#E19974"/>
<path d="M10.214 14.6613C9.80348 14.6613 9.47076 14.3285 9.47076 13.9181V9.03438C9.47076 8.62384 9.80348 8.29102 10.214 8.29102C10.6246 8.29102 10.9574 8.62384 10.9574 9.03438V13.9181C10.9574 14.3286 10.6246 14.6613 10.214 14.6613Z" fill="#978ECB"/>
<path d="M18.468 14.6613C18.0575 14.6613 17.7247 14.3285 17.7247 13.9181V9.03438C17.7247 8.62384 18.0574 8.29102 18.468 8.29102C18.8786 8.29102 19.2113 8.62384 19.2113 9.03438V13.9181C19.2114 14.3286 18.8787 14.6613 18.468 14.6613Z" fill="#978ECB"/>
<path d="M22.1707 50.0003C22.7344 50.0003 23.1264 49.4454 22.9421 48.914C21.063 43.5 20.9413 39.2144 21.2319 36.1851C21.6712 31.6055 23.2999 27.3175 20.8491 23.9894C19.9558 22.7766 18.8603 22.1523 18.7436 20.6548C18.5685 18.4099 20.8517 17.5228 20.6578 15.224C20.5422 13.8546 19.5589 12.1182 17.978 11.8894C16.5779 11.6866 15.0019 12.7088 14.3412 14.4618C13.6804 12.7087 12.1045 11.6865 10.7044 11.8894C9.12351 12.1183 8.14021 13.8547 8.02459 15.224C7.83064 17.5228 10.1137 18.4099 9.93865 20.6548C9.82185 22.1523 8.72634 22.7766 7.83318 23.9894C5.3823 27.3175 7.01111 31.6055 7.45037 36.1851C7.74089 39.2144 7.61931 43.5 5.74011 48.914C5.55564 49.4454 5.94773 50.0003 6.5115 50.0003H22.1707Z" fill="#ACA6D6"/>
<path d="M22.9421 48.9137C21.063 43.4997 20.9413 39.2141 21.2319 36.1848C21.6712 31.6052 23.2999 27.3172 20.8491 23.9892C19.9558 22.7763 18.8603 22.1521 18.7436 20.6544C18.5685 18.4095 20.8516 17.5224 20.6577 15.2236C20.5421 13.8542 19.5588 12.1179 17.9779 11.889C17.347 11.7976 16.6805 11.9557 16.0778 12.3167C17.0244 12.9665 17.5978 14.198 17.6845 15.2236C17.8784 17.5224 15.5953 18.4095 15.7704 20.6544C15.8871 22.1521 16.9826 22.7762 17.8759 23.9892C20.3267 27.3172 18.6979 31.6052 18.2587 36.1848C17.9681 39.2141 18.0897 43.4997 19.9688 48.9137C20.1533 49.445 19.7612 50 19.1974 50H22.1707C22.7345 50 23.1264 49.4451 22.9421 48.9137Z" fill="#978ECB"/>
<path d="M9.90486 19.9111C9.9447 20.1432 9.95935 20.3891 9.93865 20.6544C9.91726 20.9285 9.86287 21.1731 9.78308 21.3978H18.899C18.8193 21.1732 18.7648 20.9286 18.7435 20.6544C18.7228 20.3891 18.7374 20.1432 18.7773 19.9111H9.90486Z" fill="#978ECB"/>
<path d="M23.5872 10.0717L15.0165 7.01367V5.55625C16.4211 5.4877 17.5425 4.32715 17.5425 2.91035V2.72266C17.5425 1.22139 16.3172 0 14.811 0H14.653C13.1469 0 11.9215 1.22139 11.9215 2.72266C11.9215 3.1332 12.2542 3.46592 12.6647 3.46592C13.0753 3.46592 13.4081 3.13311 13.4081 2.72266C13.4081 2.04111 13.9665 1.48662 14.653 1.48662H14.811C15.4974 1.48662 16.0558 2.04111 16.0558 2.72266V2.91045C16.0558 3.55137 15.5306 4.07285 14.8849 4.07285C14.1378 4.07285 13.5299 4.67949 13.5299 5.4252V7.06211L5.095 10.0718C4.70838 10.2098 4.50672 10.6351 4.64481 11.0217C4.7827 11.4083 5.20799 11.6096 5.59461 11.472L14.341 8.35117L23.0875 11.472C23.17 11.5015 23.2544 11.5154 23.3373 11.5154C23.6427 11.5154 23.9288 11.3258 24.0373 11.0217C24.1754 10.635 23.9738 10.2097 23.5872 10.0717Z" fill="#E19974"/>
</g>
<defs>
<filter id="filter0_d_3_368" x="-2" y="0" width="58" height="58" filterUnits="userSpaceOnUse" color-interpolation-filters="sRGB">
<feFlood flood-opacity="0" result="BackgroundImageFix"/>
<feColorMatrix in="SourceAlpha" type="matrix" values="0 0 0 0 0 0 0 0 0 0 0 0 0 0 0 0 0 0 127 0" result="hardAlpha"/>
<feOffset dy="4"/>
<feGaussianBlur stdDeviation="2"/>
<feComposite in2="hardAlpha" operator="out"/>
<feColorMatrix type="matrix" values="0 0 0 0 0 0 0 0 0 0 0 0 0 0 0 0 0 0 0.25 0"/>
<feBlend mode="normal" in2="BackgroundImageFix" result="effect1_dropShadow_3_368"/>
<feBlend mode="normal" in="SourceGraphic" in2="effect1_dropShadow_3_368" result="shape"/>
</filter>
<clipPath id="clip0_3_368">
<rect width="50" height="50" fill="white" transform="translate(2)"/>
</clipPath>
</defs>
</svg>
